<?xml version="1.0" standalone="no"?>
<!DOCTYPE svg PUBLIC "-//W3C//DTD SVG 20010904//EN"
 "http://www.w3.org/TR/2001/REC-SVG-20010904/DTD/svg10.dtd">
<svg version="1.0" xmlns="http://www.w3.org/2000/svg"
 width="898.000000pt" height="898.000000pt" viewBox="0 0 898.000000 898.000000"
 preserveAspectRatio="xMidYMid meet">
<metadata>
Created by potrace 1.14, written by Peter Selinger 2001-2017
</metadata>
<g transform="translate(0.000000,898.000000) scale(0.100000,-0.100000)"
fill="#000000" stroke="none">
<path d="M4176 8823 c-4 -4 -20 -9 -34 -10 -156 -9 -187 -13 -184 -23 2 -8 -4
-8 -19 1 -12 6 -24 7 -28 3 -3 -5 -25 -9 -48 -9 -22 0 -39 -3 -36 -8 2 -4 -7
-6 -21 -3 -14 3 -26 1 -26 -4 0 -5 -7 -7 -15 -4 -8 4 -22 0 -31 -7 -12 -10
-17 -10 -23 0 -6 9 -11 8 -21 -4 -10 -12 -16 -13 -26 -4 -11 9 -14 8 -14 -1 0
-7 -7 -10 -15 -6 -8 3 -15 1 -15 -3 0 -5 -8 -8 -17 -6 -10 1 -24 -2 -30 -8 -7
-5 -13 -6 -13 -2 0 4 -8 1 -17 -6 -15 -12 -16 -12 -8 1 7 12 6 13 -7 3 -8 -7
-18 -10 -21 -6 -4 3 -7 0 -7 -8 0 -11 -2 -11 -10 1 -6 10 -10 11 -10 2 0 -6
-3 -11 -7 -11 -5 1 -10 1 -13 -1 -3 -1 -16 -3 -29 -6 -14 -2 -31 -10 -40 -17
-12 -10 -13 -9 -7 1 6 10 1 10 -22 -2 -16 -8 -32 -12 -35 -9 -4 3 -13 1 -20
-5 -8 -7 -17 -9 -20 -5 -4 3 -7 2 -7 -4 0 -5 -10 -9 -22 -8 -13 1 -25 -2 -28
-6 -4 -5 -22 -10 -42 -11 -20 -2 -34 -6 -32 -9 3 -6 -20 -13 -80 -25 -11 -3
-25 -9 -33 -15 -7 -6 -13 -8 -13 -4 0 4 -7 2 -15 -5 -8 -7 -22 -10 -30 -6 -9
3 -13 2 -10 -4 6 -9 -8 -14 -27 -11 -5 0 -8 -3 -8 -9 0 -5 -7 -7 -15 -4 -8 4
-15 1 -15 -6 0 -6 -4 -9 -9 -6 -5 3 -14 -1 -21 -9 -9 -11 -16 -12 -25 -5 -10
8 -17 5 -29 -12 -9 -12 -16 -17 -16 -10 0 10 -4 9 -16 -2 -8 -9 -20 -14 -25
-11 -5 4 -9 1 -9 -6 0 -7 -3 -9 -7 -6 -3 4 -12 2 -20 -4 -7 -6 -13 -9 -13 -5
0 3 -9 -2 -20 -12 -12 -9 -24 -17 -28 -17 -16 0 -72 -28 -72 -36 0 -4 -9 -6
-20 -4 -11 2 -18 0 -15 -5 3 -4 -10 -13 -29 -20 -19 -6 -40 -17 -46 -25 -7 -8
-16 -12 -21 -9 -5 3 -9 0 -9 -6 0 -6 -4 -9 -9 -6 -5 3 -14 -1 -21 -9 -7 -8
-16 -13 -20 -10 -4 3 -10 -2 -14 -10 -3 -8 -15 -15 -26 -15 -11 0 -23 -6 -26
-14 -3 -8 -11 -13 -19 -10 -7 3 -15 -2 -19 -11 -3 -9 -10 -13 -16 -10 -5 3
-10 1 -10 -4 0 -6 -6 -11 -14 -11 -7 0 -19 -7 -26 -15 -7 -8 -16 -12 -21 -9
-5 3 -9 -2 -9 -10 0 -9 -3 -16 -7 -15 -18 3 -52 -14 -47 -22 3 -5 -2 -9 -10
-9 -8 0 -20 -8 -25 -17 -6 -10 -11 -14 -11 -10 0 7 -55 -26 -70 -43 -9 -9
-100 -70 -106 -70 -10 0 -34 -28 -34 -40 0 -6 -4 -9 -8 -6 -5 3 -19 -4 -30
-15 -12 -11 -22 -17 -22 -14 0 3 -13 -8 -29 -24 -16 -16 -32 -27 -35 -24 -3 4
-6 1 -6 -6 0 -7 -4 -9 -10 -6 -9 6 -14 -8 -11 -28 1 -5 -3 -6 -9 -2 -6 3 -25
-7 -43 -24 -17 -17 -56 -53 -85 -81 -30 -28 -58 -48 -63 -44 -5 3 -8 0 -7 -8
2 -7 -3 -12 -10 -10 -8 1 -11 -1 -8 -6 3 -5 -13 -25 -35 -45 -22 -20 -37 -37
-34 -37 3 0 -3 -8 -12 -18 -10 -11 -21 -17 -25 -15 -4 2 -9 -6 -13 -17 -3 -11
-12 -19 -18 -17 -7 1 -11 -4 -9 -10 1 -7 -5 -13 -13 -13 -8 0 -15 -4 -15 -8 0
-7 -42 -59 -85 -103 -8 -9 -15 -21 -15 -28 0 -8 -6 -11 -17 -7 -10 4 -14 4
-10 0 6 -6 -8 -27 -56 -84 -6 -8 -11 -18 -9 -22 1 -5 -5 -8 -14 -8 -8 0 -13
-4 -9 -9 3 -6 -4 -15 -15 -21 -11 -6 -18 -14 -16 -19 3 -4 -3 -14 -12 -23 -28
-25 -62 -68 -54 -68 4 0 -1 -5 -11 -11 -9 -6 -15 -14 -12 -20 4 -5 -1 -9 -9
-9 -10 0 -13 -6 -9 -17 4 -10 2 -14 -4 -10 -6 4 -14 -4 -17 -18 -4 -14 -11
-25 -16 -25 -6 0 -10 -7 -10 -15 0 -9 -7 -18 -15 -21 -8 -4 -13 -10 -10 -14 3
-5 1 -11 -5 -15 -6 -4 -8 -11 -4 -16 3 -5 0 -8 -8 -7 -7 2 -12 -5 -12 -14 1
-10 -5 -18 -13 -18 -8 0 -11 -4 -8 -10 3 -5 1 -10 -4 -10 -6 0 -11 -7 -11 -15
0 -8 -4 -15 -9 -15 -5 0 -14 -13 -21 -30 -7 -16 -17 -27 -23 -23 -6 4 -8 0 -4
-10 3 -10 2 -17 -3 -17 -6 0 -10 -7 -10 -15 0 -8 -5 -15 -11 -15 -5 0 -7 -4
-4 -10 3 -5 1 -10 -4 -10 -6 0 -11 -5 -11 -11 0 -6 -7 -17 -15 -26 -8 -8 -13
-19 -10 -24 4 -5 1 -9 -5 -9 -6 0 -8 -4 -5 -10 3 -5 2 -10 -4 -10 -6 0 -13
-11 -17 -25 -3 -14 -10 -25 -15 -25 -5 0 -9 -7 -9 -15 0 -8 -5 -15 -11 -15 -5
0 -8 -4 -4 -9 3 -5 -2 -16 -10 -25 -9 -8 -16 -19 -17 -23 -2 -24 -19 -53 -28
-48 -6 3 -7 -1 -4 -9 3 -9 -1 -23 -10 -32 -9 -8 -14 -20 -11 -25 4 -5 1 -9 -5
-9 -6 0 -9 -4 -5 -9 3 -5 -2 -17 -11 -25 -8 -9 -13 -16 -9 -16 3 0 0 -10 -7
-22 -7 -13 -11 -26 -10 -30 1 -5 -3 -8 -9 -8 -5 0 -8 -4 -4 -9 3 -5 -2 -17
-11 -25 -8 -9 -12 -16 -8 -16 3 0 1 -7 -6 -15 -7 -8 -9 -15 -4 -15 4 0 -3 -12
-17 -27 -13 -14 -18 -23 -11 -19 14 9 17 -10 2 -19 -6 -4 -8 -10 -5 -15 3 -5
0 -12 -7 -17 -7 -4 -13 -14 -14 -20 -3 -39 -5 -44 -13 -39 -5 4 -8 -2 -6 -11
1 -10 -2 -24 -8 -30 -5 -7 -6 -13 -2 -13 4 0 2 -7 -5 -15 -7 -8 -10 -15 -6
-15 4 0 0 -13 -8 -29 -9 -16 -12 -31 -9 -34 3 -4 0 -13 -6 -21 -12 -14 -20
-44 -24 -88 -1 -10 -6 -18 -11 -18 -5 0 -7 -2 -4 -6 3 -3 0 -25 -7 -49 -8 -24
-11 -46 -8 -49 4 -3 2 -6 -3 -6 -5 0 -10 -8 -10 -17 -1 -10 -4 -31 -8 -48 -7
-29 -16 -76 -20 -102 -1 -7 -5 -15 -8 -19 -4 -3 -4 -13 -1 -22 5 -11 3 -13 -6
-7 -10 6 -11 3 -2 -14 7 -12 8 -21 2 -21 -5 0 -10 -8 -10 -17 0 -17 -3 -34
-14 -95 -3 -15 -9 -33 -13 -39 -5 -8 -3 -9 5 -4 10 6 11 3 3 -11 -5 -11 -7
-25 -5 -31 3 -7 1 -13 -4 -13 -4 0 -8 -18 -7 -40 0 -23 -2 -43 -5 -45 -4 -2
-6 -21 -6 -42 0 -21 -4 -41 -10 -45 -6 -5 -6 -8 2 -8 7 0 10 -7 7 -15 -4 -8
-11 -12 -16 -9 -6 4 -5 -2 1 -14 8 -15 8 -23 0 -28 -8 -4 -7 -9 2 -15 11 -7
11 -9 1 -9 -7 0 -10 -5 -7 -10 4 -6 2 -17 -5 -25 -8 -9 -8 -15 0 -20 8 -5 8
-10 0 -20 -8 -9 -8 -15 0 -20 6 -3 8 -11 4 -16 -3 -6 -6 -50 -6 -99 -1 -62 -4
-88 -12 -83 -6 3 -5 0 1 -8 17 -17 17 -49 1 -49 -9 0 -9 -3 -3 -8 6 -4 12 -38
12 -76 1 -37 4 -70 7 -73 2 -2 0 -18 -4 -34 -5 -16 -5 -31 1 -34 5 -4 7 -24 5
-46 -2 -21 0 -42 5 -45 5 -3 5 -12 0 -22 -11 -21 -10 -31 6 -62 7 -13 9 -27 5
-30 -11 -8 -13 -30 -3 -30 5 0 8 -11 6 -25 -1 -14 1 -25 4 -25 3 0 6 -15 7
-32 1 -36 11 -123 15 -123 1 0 3 -9 5 -20 1 -11 5 -36 9 -55 3 -19 8 -48 10
-65 2 -16 8 -29 14 -27 9 2 9 -3 2 -17 -6 -10 -7 -21 -4 -25 8 -8 14 -32 16
-63 0 -13 4 -23 8 -23 7 0 9 -8 10 -57 0 -13 3 -23 7 -23 7 0 13 -30 15 -77 1
-12 5 -19 9 -17 4 3 8 -5 8 -18 0 -13 5 -29 12 -36 9 -9 9 -12 -2 -12 -10 0
-8 -5 5 -20 9 -10 15 -26 12 -34 -3 -8 -2 -16 3 -18 6 -2 11 -15 12 -30 1 -16
6 -28 10 -28 4 0 8 -11 8 -25 0 -14 4 -25 9 -25 5 0 8 -8 7 -17 -2 -9 4 -29
11 -44 8 -15 16 -38 18 -50 3 -13 9 -27 14 -32 5 -5 7 -15 5 -22 -3 -7 -1 -16
5 -20 6 -3 11 -15 11 -26 0 -11 3 -18 7 -16 5 3 9 -6 10 -20 0 -14 6 -29 13
-33 6 -4 11 -10 10 -14 -2 -12 24 -76 32 -76 4 0 5 -7 2 -15 -4 -8 -1 -15 6
-15 6 0 8 -4 5 -10 -3 -5 -1 -10 4 -10 6 0 10 -3 9 -7 -1 -5 8 -29 20 -56 12
-26 21 -50 21 -53 0 -3 7 -11 17 -18 9 -7 14 -18 10 -25 -4 -6 0 -14 8 -17 9
-3 13 -10 10 -15 -3 -5 0 -9 6 -9 6 0 9 -4 5 -9 -3 -5 1 -16 9 -24 8 -8 18
-26 22 -41 3 -14 10 -26 16 -26 5 0 6 -4 3 -10 -3 -5 -1 -10 4 -10 6 0 11 -7
11 -15 0 -9 7 -18 15 -21 8 -4 12 -10 9 -15 -3 -5 0 -9 6 -9 6 0 8 -5 5 -10
-3 -5 -1 -10 6 -10 7 0 10 -3 6 -6 -3 -4 -1 -12 6 -20 30 -33 35 -42 30 -48
-4 -3 -1 -6 6 -6 7 0 9 -4 6 -10 -3 -5 -1 -10 5 -10 6 0 8 -4 5 -10 -3 -5 -1
-10 4 -10 6 0 11 -4 11 -10 0 -9 19 -36 48 -66 7 -8 10 -19 6 -25 -4 -8 -3 -9
4 -5 7 4 12 1 12 -9 0 -8 7 -18 15 -21 8 -4 12 -10 9 -15 -3 -5 0 -9 6 -9 6 0
8 -4 5 -10 -3 -5 -2 -10 4 -10 10 0 76 -90 75 -100 -1 -3 7 -11 17 -18 11 -7
19 -20 19 -28 0 -8 7 -14 17 -14 9 0 14 -3 10 -6 -7 -7 44 -60 55 -57 4 2 5
-3 2 -11 -3 -7 2 -16 11 -20 9 -3 14 -9 12 -13 -3 -5 1 -14 9 -21 8 -7 14 -9
14 -5 0 4 12 -10 27 -32 15 -22 27 -43 25 -48 -1 -4 1 -6 5 -6 5 1 15 1 23 0
13 -1 13 -2 0 -11 -10 -6 -11 -10 -3 -10 15 0 159 -142 155 -152 -1 -5 7 -8
19 -8 11 0 18 -4 14 -9 -3 -6 2 -16 11 -23 9 -7 27 -24 40 -37 13 -13 24 -21
24 -19 0 3 22 -16 49 -43 27 -26 51 -45 55 -42 3 4 6 -1 6 -10 0 -9 5 -17 10
-17 6 0 22 -11 36 -25 14 -14 30 -25 36 -25 5 0 7 -7 4 -16 -5 -14 -4 -15 9
-4 13 11 14 10 9 -5 -5 -12 -4 -16 4 -11 6 4 19 -2 29 -14 10 -11 23 -20 31
-20 7 0 10 -4 7 -10 -3 -5 1 -10 10 -10 9 0 13 -5 10 -10 -5 -9 16 -15 38 -11
5 1 6 -2 3 -7 -6 -9 46 -52 64 -52 5 0 10 -4 10 -10 0 -5 4 -10 9 -10 6 0 22
-11 37 -25 14 -13 30 -23 33 -20 4 2 14 -5 21 -16 8 -10 20 -19 27 -19 7 0 22
-9 33 -20 11 -11 27 -20 35 -20 8 0 15 -7 15 -15 0 -9 6 -12 15 -9 8 4 15 1
15 -5 0 -6 7 -11 15 -11 8 0 15 -4 15 -10 0 -5 7 -10 15 -10 9 0 18 -7 22 -16
3 -8 11 -13 18 -10 8 3 16 -2 19 -10 3 -9 10 -12 16 -9 5 3 10 -1 10 -9 0 -10
6 -13 17 -9 12 5 14 3 8 -7 -6 -10 -3 -12 13 -8 12 4 20 2 17 -3 -3 -4 6 -11
20 -15 14 -3 22 -11 18 -17 -4 -6 0 -8 10 -4 11 4 17 1 17 -8 0 -8 4 -14 8
-13 16 5 151 -65 145 -75 -3 -5 5 -4 17 3 12 7 20 8 17 3 -6 -9 91 -59 106
-55 4 1 7 -3 7 -9 0 -6 7 -8 15 -5 9 3 18 0 21 -7 2 -7 12 -13 22 -14 9 -1 31
-7 47 -14 17 -7 33 -12 38 -11 4 1 7 -2 7 -8 0 -5 11 -10 25 -10 14 0 25 -4
25 -8 0 -4 10 -8 21 -9 12 -1 30 -10 40 -19 13 -12 19 -13 19 -4 0 10 3 10 15
0 8 -6 20 -8 26 -4 8 4 9 3 5 -4 -4 -7 -2 -13 3 -13 13 -2 15 -2 66 -17 22 -6
42 -11 45 -10 3 1 16 -5 30 -13 14 -7 32 -15 40 -16 8 -1 25 -4 38 -7 12 -3
32 -9 45 -12 39 -9 42 -10 62 -17 11 -3 36 -8 55 -11 19 -3 50 -10 68 -15 17
-5 32 -7 32 -4 0 3 8 -1 17 -8 15 -12 16 -12 8 1 -7 12 -6 13 6 4 8 -6 21 -12
29 -12 8 -1 26 -4 40 -6 14 -3 48 -8 75 -12 28 -4 56 -12 64 -18 12 -9 13 -8
6 4 -7 12 -6 13 6 4 14 -10 40 -14 107 -17 17 -1 32 -5 32 -9 0 -4 14 -6 30
-4 17 2 32 0 35 -4 2 -4 23 -6 47 -4 23 1 47 0 53 -4 16 -10 59 -9 74 2 12 9
13 8 6 -3 -6 -11 -4 -13 7 -8 9 3 21 0 27 -6 8 -8 11 -8 11 0 0 7 9 10 23 7
44 -10 92 -10 106 0 11 8 13 8 8 0 -5 -8 16 -11 69 -9 41 1 77 -2 80 -7 3 -4
11 -5 17 -1 7 4 55 9 107 10 147 5 184 8 199 17 10 6 16 5 19 -3 3 -9 11 -8
29 5 14 9 23 12 20 7 -7 -11 101 -8 111 3 4 4 0 4 -8 -1 -8 -5 -12 -4 -7 0 4
5 22 10 40 11 18 2 46 6 62 9 17 3 40 6 53 5 13 0 31 4 41 9 10 6 24 5 35 -1
12 -7 17 -7 12 0 -3 5 1 13 10 16 22 9 26 8 18 -5 -5 -8 -1 -8 13 0 11 6 23 7
27 4 3 -3 6 -1 6 6 0 8 7 10 19 6 11 -3 22 -1 26 5 5 8 12 7 23 -2 13 -11 14
-11 7 1 -6 11 -4 13 8 8 10 -4 17 -2 17 4 0 6 6 9 14 6 7 -3 19 0 25 6 8 8 11
7 11 -4 0 -10 2 -11 8 -2 4 7 18 14 30 16 12 2 25 6 28 10 4 4 14 1 22 -6 13
-9 14 -9 8 1 -5 8 0 12 13 12 12 0 21 4 21 8 0 4 8 9 18 9 28 3 77 11 82 13 3
1 8 2 13 1 4 0 7 4 7 10 0 5 5 7 11 4 6 -4 17 1 25 11 9 11 13 13 9 7 -3 -7
-1 -13 4 -13 6 0 11 4 11 9 0 6 9 8 20 6 11 -2 20 1 20 7 0 6 9 8 20 5 11 -3
18 -1 14 4 -3 5 0 10 5 10 6 1 14 2 19 3 4 1 22 6 40 10 17 4 32 12 32 17 0 6
5 7 10 4 6 -4 17 -2 24 4 7 6 21 12 32 14 10 2 29 8 40 15 12 6 24 8 28 5 3
-3 6 -1 6 6 0 7 6 11 12 9 7 -3 19 1 26 9 8 7 18 11 23 8 5 -4 9 -1 9 4 0 6 3
10 8 9 4 -1 17 3 30 10 12 7 22 10 22 7 0 -4 7 1 16 10 10 9 25 14 35 12 10
-3 17 0 16 7 -1 6 4 10 12 8 7 -1 19 2 25 8 7 5 17 6 21 2 5 -4 5 -2 2 4 -8
13 16 37 26 27 4 -3 13 0 22 7 8 7 15 9 15 4 0 -4 7 1 16 12 8 10 12 12 8 4
-5 -8 8 -3 28 13 20 15 44 27 52 27 9 0 16 5 16 11 0 6 6 9 14 6 8 -3 16 -2
18 3 2 5 10 10 18 12 8 2 23 11 32 21 9 11 21 16 26 13 6 -3 12 1 16 9 3 8 12
15 19 15 8 0 25 10 39 22 14 13 30 24 36 25 6 1 27 14 47 28 21 13 41 22 46
19 5 -3 8 0 7 8 -2 7 5 12 15 12 10 -1 16 0 13 3 -8 9 35 44 45 37 5 -3 9 3 9
12 0 10 3 15 6 11 3 -3 15 3 27 13 11 11 24 17 29 14 7 -5 12 9 10 27 -1 4 7
5 18 2 12 -3 22 1 26 11 3 9 13 16 22 16 8 0 12 3 9 7 -4 3 10 18 31 31 20 14
45 34 55 45 9 11 17 16 17 11 0 -5 5 -1 11 9 6 9 15 14 21 11 6 -4 9 -3 6 2
-3 5 0 15 8 22 8 7 14 10 14 6 0 -4 13 7 28 24 16 18 31 29 34 26 4 -3 9 4 13
15 3 12 11 19 16 16 5 -4 9 1 9 10 0 9 4 14 9 10 6 -3 14 3 20 12 5 10 13 17
18 17 4 -1 7 2 5 7 -1 5 4 9 12 9 8 0 18 9 21 20 4 11 11 18 16 15 5 -4 9 -1
9 5 0 6 4 9 9 5 5 -3 13 4 16 16 5 13 12 18 22 14 13 -4 14 -3 3 10 -9 11 -9
15 -1 15 16 0 41 25 41 40 0 7 6 10 14 7 9 -4 16 4 21 21 4 18 9 22 14 13 6
-9 10 -5 15 13 4 15 11 24 16 21 5 -3 11 3 15 14 3 11 12 22 20 25 8 3 15 13
15 23 0 15 2 16 10 3 8 -12 10 -11 10 8 0 20 10 27 33 23 5 -1 6 3 2 8 -3 6 3
18 15 28 11 10 20 24 20 31 0 8 6 12 15 8 8 -3 14 -2 14 2 -3 20 2 33 11 27 6
-3 10 -2 10 4 0 6 11 21 25 35 14 14 25 30 25 36 0 5 5 10 11 10 5 0 7 5 4 10
-3 6 1 10 9 10 9 0 16 7 16 15 0 8 4 15 8 15 5 0 15 11 22 25 7 13 18 22 23
18 6 -3 7 -1 4 4 -4 6 2 22 13 36 11 14 20 28 20 32 0 15 38 54 45 47 5 -4 5
-2 2 4 -4 6 3 22 14 35 11 13 27 38 36 56 8 18 20 30 26 26 5 -3 7 -1 4 4 -4
6 0 16 8 23 8 7 12 16 9 21 -3 5 0 9 5 9 6 0 11 7 11 15 0 8 5 15 12 15 6 0 9
3 5 6 -3 4 1 13 9 21 8 8 12 19 9 24 -4 5 -1 9 5 9 6 0 8 5 5 10 -3 6 1 10 10
10 9 0 13 5 10 10 -3 6 -1 10 4 10 6 0 10 3 9 8 -3 13 20 58 36 71 9 7 16 22
16 33 0 10 7 21 15 24 8 4 13 10 10 14 -8 13 6 40 18 33 5 -3 7 -1 3 5 -3 6
-2 13 3 17 6 3 8 12 4 20 -3 8 0 15 7 15 7 0 10 6 7 14 -3 8 1 17 9 20 9 3 13
10 9 15 -3 5 0 13 6 16 5 4 8 13 5 20 -2 7 2 16 10 19 9 3 13 10 9 15 -3 6 3
14 12 20 13 7 14 10 4 11 -11 0 -10 5 4 20 10 11 15 20 10 20 -4 0 -2 6 4 13
6 8 8 17 4 20 -3 4 0 7 7 7 7 0 10 3 7 7 -4 3 -2 12 4 20 6 7 8 13 4 13 -5 0
0 9 10 20 14 15 15 20 4 20 -9 0 -10 3 -3 8 9 6 20 27 29 52 1 3 7 18 13 33 7
16 12 34 12 41 0 6 4 16 10 22 5 5 11 18 13 29 2 11 9 33 16 48 6 16 9 32 6
37 -3 4 5 20 17 35 15 20 18 29 9 34 -9 6 -8 11 3 20 8 7 13 21 11 32 -2 10 0
19 4 19 7 0 11 15 12 52 0 10 5 20 10 23 5 4 7 11 4 16 -4 5 -2 9 3 9 6 0 10
6 9 12 -1 34 4 59 11 54 4 -2 7 8 6 22 0 15 4 30 10 34 8 6 8 8 0 8 -8 0 -8
12 2 41 8 22 12 45 9 50 -4 5 -2 9 4 9 6 0 9 13 7 30 -2 17 0 30 5 30 4 0 7
12 7 28 -1 42 1 54 10 48 4 -2 7 8 6 22 -1 15 3 33 9 40 6 8 6 12 -3 12 -10 0
-10 3 -1 14 9 10 9 16 1 21 -8 5 -8 11 1 21 6 8 8 14 3 14 -5 0 -2 5 6 10 9 6
11 10 3 10 -14 0 -6 31 11 42 8 6 8 8 0 8 -6 0 -11 7 -11 15 0 8 3 15 6 15 4
0 6 18 4 40 -1 22 3 40 8 40 6 0 7 6 2 13 -10 15 -5 48 10 66 9 11 9 13 0 8
-9 -6 -11 2 -9 28 2 20 6 39 10 42 3 3 1 13 -4 22 -5 10 -5 23 0 31 5 9 5 19
-2 27 -7 9 -7 13 0 13 11 0 11 18 -1 36 -3 6 -4 14 0 18 11 10 12 56 2 56 -6
0 -7 6 -2 13 12 20 12 88 -1 80 -8 -5 -8 -3 0 8 12 16 12 29 1 46 -4 6 -3 14
3 18 7 4 7 12 0 25 -7 13 -7 21 0 25 8 5 7 11 -1 21 -9 11 -9 14 1 14 10 0 10
3 0 15 -10 12 -10 15 1 15 9 0 10 3 4 8 -5 4 -11 23 -12 42 -4 101 -9 150 -14
150 -3 0 -6 15 -7 33 -1 83 -7 127 -15 127 -5 0 -4 7 3 15 9 11 9 15 1 15 -7
0 -10 4 -6 9 3 5 2 12 -3 15 -4 2 -7 17 -6 33 1 15 -3 36 -7 45 -6 11 -5 18 4
21 8 4 7 6 -3 6 -11 1 -15 13 -14 51 1 27 -3 50 -8 50 -6 0 -8 9 -5 20 3 11 1
20 -3 20 -5 0 -9 8 -9 18 -2 42 -6 62 -11 62 -3 0 -5 16 -5 35 1 19 -2 32 -7
29 -4 -3 -9 5 -10 18 -2 31 -3 39 -15 68 -6 14 -8 31 -6 38 3 6 1 12 -4 12 -5
0 -10 6 -11 13 -1 6 -3 23 -4 37 -2 14 -9 31 -16 38 -7 8 -10 18 -6 23 3 6 0
16 -6 24 -7 8 -9 15 -5 15 4 0 2 7 -5 15 -7 8 -9 15 -4 15 4 0 3 5 -4 12 -7 7
-12 20 -12 30 0 10 -4 26 -9 36 -11 20 -19 45 -17 53 0 3 -5 13 -13 22 -7 10
-11 17 -7 17 3 0 -3 16 -14 36 -11 19 -18 39 -15 45 4 5 1 9 -4 9 -6 0 -10 3
-9 8 1 4 -6 25 -16 47 -24 53 -33 78 -34 88 -1 4 -8 15 -17 24 -9 8 -14 20
-12 27 2 6 -3 16 -10 21 -12 9 -19 28 -22 58 -1 5 -6 5 -11 2 -6 -4 -9 -3 -8
2 4 14 -25 83 -34 83 -5 0 -6 5 -3 10 3 6 1 10 -5 10 -6 0 -9 4 -6 9 4 5 3 11
-2 13 -14 6 -52 79 -47 89 4 5 -1 9 -9 9 -9 0 -16 7 -16 15 0 8 -9 24 -20 35
-11 11 -20 27 -20 34 0 8 -11 27 -25 42 -13 14 -22 30 -19 35 3 5 1 9 -5 9 -6
0 -14 12 -17 26 -5 19 -9 22 -15 12 -6 -9 -9 -7 -9 10 0 12 -5 22 -11 22 -5 0
-7 4 -4 10 3 5 -3 15 -15 22 -11 7 -20 17 -20 21 0 5 -7 15 -15 24 -8 8 -12
19 -9 25 4 6 3 9 -2 6 -5 -3 -15 0 -22 8 -10 11 -10 14 0 14 7 1 3 6 -9 13
-12 7 -22 16 -21 20 0 5 -13 24 -29 42 -17 18 -36 47 -43 65 -7 17 -15 28 -18
26 -6 -7 -32 20 -32 33 0 6 -4 11 -8 11 -5 0 -15 11 -22 25 -7 13 -17 22 -22
19 -7 -5 -12 10 -9 29 1 7 -15 11 -31 8 -5 0 -8 8 -8 19 0 12 -10 24 -22 30
-14 5 -17 9 -8 10 13 0 13 2 0 9 -8 6 -18 7 -22 5 -4 -3 -5 2 -2 10 4 11 0 16
-12 16 -9 0 -15 3 -12 6 8 7 -36 54 -51 54 -7 0 -10 4 -7 9 3 5 -7 19 -23 32
-16 13 -27 27 -25 31 3 4 0 8 -6 8 -15 0 -80 67 -72 74 3 3 -1 6 -8 6 -17 0
-81 66 -72 75 4 4 3 6 -3 5 -21 -5 -36 0 -30 10 6 10 -9 15 -30 10 -5 -1 -7 1
-3 5 9 9 -23 45 -34 39 -5 -3 -7 -2 -6 3 2 4 -1 10 -7 13 -5 2 -20 15 -33 27
-13 13 -28 20 -34 17 -6 -4 -8 -3 -5 3 7 10 -26 43 -62 63 -12 6 -19 15 -16
21 4 5 -2 9 -12 9 -10 0 -25 9 -33 20 -8 11 -18 20 -23 20 -4 0 -17 9 -29 20
-12 10 -25 17 -30 14 -4 -3 -8 2 -8 10 0 9 -6 16 -13 16 -7 0 -23 9 -35 20
-12 11 -28 20 -36 20 -7 0 -16 7 -20 15 -3 8 -16 20 -28 25 -22 10 -79 48
-105 70 -7 5 -17 10 -23 10 -6 0 -8 4 -5 10 3 6 -1 7 -9 4 -9 -3 -16 -1 -16 6
0 6 -4 8 -10 5 -5 -3 -10 -1 -10 4 0 6 -5 11 -11 11 -6 0 -17 7 -26 15 -8 8
-19 13 -24 10 -5 -4 -9 -2 -9 3 0 5 -13 15 -30 22 -16 7 -30 16 -30 21 0 5 -9
9 -21 9 -11 0 -17 4 -14 10 3 5 0 7 -8 4 -8 -3 -18 0 -22 5 -7 12 -75 45 -87
43 -5 -1 -8 5 -8 14 0 8 -4 13 -9 10 -13 -9 -81 22 -81 37 0 9 -3 8 -9 -1 -7
-11 -9 -10 -15 3 -3 9 -10 13 -16 10 -5 -3 -10 -1 -10 5 0 6 -4 8 -10 5 -5 -3
-10 -1 -10 5 0 6 -4 8 -10 5 -5 -3 -10 -1 -10 6 0 7 -3 9 -7 6 -3 -4 -17 0
-31 9 -13 9 -21 11 -18 5 5 -7 1 -9 -8 -5 -9 3 -16 10 -16 15 0 5 -9 9 -20 9
-11 0 -20 5 -20 11 0 5 -4 8 -8 5 -5 -3 -20 1 -35 9 -15 7 -37 15 -49 17 -13
2 -25 5 -28 8 -3 3 -16 11 -29 18 -19 11 -22 11 -15 0 4 -7 -2 -4 -14 6 -16
14 -22 15 -22 6 0 -9 -5 -7 -16 6 -8 10 -12 13 -9 6 6 -11 3 -11 -16 -1 -58
30 -61 31 -54 17 3 -7 -1 -4 -9 6 -10 13 -16 15 -16 7 0 -10 -3 -11 -13 -2 -8
6 -17 8 -20 4 -4 -3 -7 -1 -7 5 0 6 -7 9 -17 5 -11 -4 -14 -3 -9 5 5 8 2 10
-8 6 -9 -3 -16 -2 -16 4 0 5 -6 10 -12 9 -41 -1 -68 4 -63 12 3 6 -3 8 -15 6
-11 -2 -22 0 -25 5 -3 5 -12 7 -20 3 -8 -3 -15 0 -15 5 0 6 -9 9 -20 7 -11 -2
-20 1 -20 7 0 7 -5 6 -14 -1 -11 -9 -16 -9 -23 2 -4 7 -18 14 -30 14 -41 1
-44 3 -37 16 5 8 2 8 -9 -2 -11 -9 -17 -10 -17 -2 0 6 -3 10 -7 10 -30 -5 -63
2 -57 12 5 8 2 9 -11 2 -21 -12 -57 -5 -49 9 4 6 -1 6 -13 -1 -14 -7 -23 -7
-31 1 -7 7 -12 9 -12 5 0 -4 -10 -3 -21 4 -15 8 -19 8 -15 0 4 -6 2 -11 -3
-11 -6 0 -11 4 -11 10 0 5 -13 8 -30 6 -16 -2 -30 0 -30 4 0 4 -13 6 -30 5
-16 -1 -30 2 -30 7 0 6 -6 6 -14 -1 -8 -7 -17 -8 -20 -3 -3 5 -23 8 -46 8 -22
-1 -40 3 -40 9 0 5 -5 3 -10 -5 -5 -8 -10 -10 -10 -3 0 6 -9 9 -22 5 -16 -4
-19 -2 -13 8 6 10 4 11 -6 4 -19 -12 -51 -12 -66 -1 -9 6 -13 5 -13 -2 0 -9
-5 -9 -21 0 -16 8 -20 8 -14 -1 6 -9 2 -9 -14 -1 -16 9 -21 9 -21 0 0 -9 -3
-9 -14 0 -10 8 -16 9 -21 1 -4 -7 -12 -7 -25 0 -13 7 -21 7 -25 0 -4 -6 -11
-7 -17 -4 -17 11 -68 12 -68 2 0 -5 -6 -6 -12 -1 -18 10 -78 11 -84 1 -3 -5
-11 -5 -17 -1 -18 11 -36 12 -43 2 -3 -5 -12 -5 -23 1 -12 6 -22 5 -29 -2 -7
-7 -12 -8 -12 -2 0 5 -9 10 -20 10 -11 0 -20 -4 -20 -9 0 -5 -6 -5 -13 2 -10
8 -17 7 -25 -1 -9 -9 -12 -9 -12 1 0 10 -3 11 -14 2 -10 -9 -15 -9 -18 -1 -2
6 -7 8 -12 3z"/>
</g>
</svg>
